# xmcd
#
# Track frame offsets:
#	182
#	17250
#	33825
#	48277
#	64272
#	81567
#	99480
#	114030
#	131867
#	145972
#	162330
#	181252
#	193610
#	208475
#	226105
#	239552
#	251597
#	262630
#	276132
#	293537
#
# Disc length: 4105 seconds
#
# Revision: 5
# Processed by: cddbd v1.5.2PL0 Copyright (c) Steve Scherf et al.
# Submitted via: audiograbber 1.83.01
#
DISCID=15100714
DTITLE=Various Artist - #1 Country 
DYEAR=1989
DGENRE=Country
TTITLE0=Southern Pacific - New Shade of Blue
TTITLE1=Tanya Tucker w/Paul Davis and Paul Overstreet - I Won't Take Less than Yo
TTITLE1=ur Love
TTITLE2=John Schneider - Country Girls
TTITLE3=Emmylou Harris - (Lost His Love) On Out Last Date
TTITLE4=Don Williams - Heartbeat in the Darkness
TTITLE5=The Judds - Grandpa
TTITLE6=The Judds - The Best Year of My Life
TTITLE7=The Oak Ridge Boys - It Takes a Little Rain
TTITLE8=Anne Murray - A Little Good News
TTITLE9=Johnny Lee - Lookin' for Love
TTITLE10=Exile - I Can't Get Close Enough
TTITLE11=Tanya Tucker - Strong Enough to Bend
TTITLE12=The Statler Brothers - My Only Love
TTITLE13=Michael Martin Murphey - I'm Gonna Miss You, Girl
TTITLE14=Billy Joe Royal - Tell It like it is
TTITLE15=Holly Dunn - Are you Ever Gonna Love me
TTITLE16=Vern Gosdin - Set 'Em Up Joe
TTITLE17=Bellamy Brothers - Do You Love As Good As You Look
TTITLE18=The McCarters - The Gift
TTITLE19=George Strait - You Look So Good in Love
EXTD=
EXTT0=Southern Pacific\n
EXTT1=Tanya Tucker w/Paul Davie and Paul \nOverstreet\n
EXTT2=John Schneider\n
EXTT3=Emmylou Harris\n
EXTT4=Don Williams\n
EXTT5=The Judds\n
EXTT6=Eddie Rabbit\n
EXTT7=Oak Ridge Boys\n
EXTT8=Anne Murray\n
EXTT9=Johnny Less\n
EXTT10=Exile\n
EXTT11=Tanya Tucker\n
EXTT12=Statler Bros.\n
EXTT13=Michael Martin Murphy\n
EXTT14=Billy Joe Royal\n
EXTT15=Holly Dunn\n
EXTT16=Vern Gosdin\n
EXTT17=Bellamy Brothers\n
EXTT18=The McCarters\n
EXTT19=George Strait\n
PLAYORDER=
